<svg width="251" height="246" viewBox="0 0 251 246" fill="none" xmlns="http://www.w3.org/2000/svg">
<path d="M236.019 143.85L192.444 77.2524C191.547 75.8795 190.378 74.7643 189.031 73.9967C187.683 73.229 186.195 72.8303 184.687 72.8327H53.1063C51.5978 72.8303 50.1098 73.229 48.7624 73.9967C47.415 74.7643 46.2457 75.8795 45.349 77.2524L1.77423 143.85V225.009C1.77423 229.425 3.32426 233.66 6.08332 236.782C8.84239 239.905 12.5845 241.659 16.4864 241.659H221.333C225.235 241.659 228.977 239.905 231.736 236.782C234.495 233.66 236.045 229.425 236.045 225.009L236.019 143.85Z" fill="#456278"/>
<path d="M221.333 243.142H16.4597C12.203 243.142 8.12075 241.228 5.11086 237.822C2.10097 234.416 0.410033 229.796 0.410033 224.979V143.85C0.406162 143.525 0.495277 143.206 0.664145 142.942L44.2389 76.3442C45.2646 74.7838 46.5978 73.5157 48.1325 72.6408C49.6672 71.7658 51.3611 71.3081 53.0796 71.304H184.66C186.378 71.3081 188.072 71.7658 189.607 72.6408C191.142 73.5157 192.475 74.7838 193.501 76.3442L237.075 142.942C237.244 143.206 237.333 143.525 237.329 143.85V225.009C237.322 229.811 235.636 234.414 232.638 237.812C229.641 241.21 225.576 243.126 221.333 243.142ZM3.11172 144.35V225.009C3.11172 229.024 4.52083 232.873 7.02908 235.712C9.53732 238.55 12.9392 240.145 16.4864 240.145H221.333C224.881 240.145 228.282 238.55 230.791 235.712C233.299 232.873 234.708 229.024 234.708 225.009V144.35L191.401 78.1302C190.625 76.9498 189.617 75.9904 188.456 75.3282C187.295 74.6661 186.013 74.3195 184.713 74.316H53.1063C51.8064 74.3195 50.525 74.6661 49.3641 75.3282C48.2033 75.9904 47.1948 76.9498 46.419 78.1302L3.11172 144.35Z" fill="#456278"/>
<path d="M236.019 143.85V225.009C236.019 229.425 234.469 233.66 231.71 236.782C228.951 239.905 225.208 241.659 221.307 241.659H16.4597C12.5578 241.659 8.81566 239.905 6.05659 236.782C3.29752 233.66 1.7475 229.425 1.7475 225.009V143.85H65.157L71.1221 177.149C71.6619 180.142 73.0991 182.832 75.1905 184.763C77.2818 186.693 79.8985 187.747 82.5976 187.745H155.944C158.679 187.742 161.327 186.66 163.432 184.684C165.536 182.708 166.966 179.963 167.473 176.922L172.984 143.76L236.019 143.85Z" fill="white"/>
<path d="M221.32 243.142H16.4596C12.203 243.142 8.12072 241.228 5.11083 237.822C2.10094 234.416 0.410004 229.796 0.410004 224.979V143.85C0.410004 143.449 0.550914 143.064 0.801739 142.78C1.05256 142.496 1.39275 142.337 1.74747 142.337H65.1569C65.4698 142.33 65.775 142.447 66.0194 142.668C66.2638 142.889 66.4319 143.201 66.4944 143.548L72.4595 176.847C72.9342 179.503 74.2051 181.893 76.0573 183.611C77.9095 185.329 80.2293 186.271 82.6243 186.276H155.971C158.394 186.274 160.74 185.313 162.603 183.561C164.466 181.809 165.73 179.375 166.176 176.68L171.686 143.517C171.746 143.168 171.913 142.853 172.158 142.629C172.402 142.404 172.709 142.285 173.024 142.291H236.032C236.387 142.291 236.727 142.451 236.978 142.735C237.229 143.019 237.37 143.404 237.37 143.805V224.964C237.371 227.35 236.957 229.714 236.152 231.919C235.346 234.125 234.164 236.129 232.673 237.817C231.183 239.505 229.413 240.844 227.465 241.758C225.517 242.672 223.429 243.142 221.32 243.142ZM3.11169 145.364V225.009C3.11169 229.023 4.5208 232.873 7.02905 235.712C9.53729 238.55 12.9392 240.145 16.4864 240.145H221.32C224.867 240.145 228.269 238.55 230.777 235.712C233.286 232.873 234.695 229.023 234.695 225.009V145.364H174.121L168.771 177.286C168.215 180.682 166.628 183.752 164.283 185.963C161.938 188.175 158.983 189.388 155.931 189.394H82.6243C79.6127 189.389 76.6951 188.206 74.3652 186.047C72.0353 183.887 70.4361 180.883 69.8381 177.543L64.0602 145.364H3.11169Z" fill="#456278"/>
<path d="M53.2267 208.587H26.9588C26.6041 208.587 26.2639 208.427 26.0131 208.143C25.7622 207.86 25.6213 207.475 25.6213 207.073C25.6213 206.672 25.7622 206.287 26.0131 206.003C26.2639 205.719 26.6041 205.56 26.9588 205.56H53.2267C53.5814 205.56 53.9216 205.719 54.1725 206.003C54.4233 206.287 54.5642 206.672 54.5642 207.073C54.5642 207.475 54.4233 207.86 54.1725 208.143C53.9216 208.427 53.5814 208.587 53.2267 208.587Z" fill="#456278"/>
<path d="M71.4163 52.8987C71.0033 52.8963 70.5964 52.7858 70.2274 52.5757C69.8585 52.3656 69.5375 52.0617 69.2897 51.6878L51.0868 24.4431C50.6593 23.8008 50.4748 22.9927 50.5739 22.1965C50.673 21.4003 51.0475 20.6812 51.6151 20.1975C52.1826 19.7138 52.8967 19.505 53.6003 19.6171C54.3038 19.7293 54.9392 20.1531 55.3667 20.7954L73.5563 48.04C73.9833 48.6805 74.1683 49.4866 74.0705 50.2812C73.9727 51.0759 73.6001 51.7941 73.0346 52.2781C72.5697 52.6796 72.0012 52.8976 71.4163 52.8987Z" fill="#DFEAEF"/>
<path d="M157.603 52.8987C157.019 52.8922 156.452 52.6748 155.985 52.2781C155.419 51.7941 155.046 51.0759 154.949 50.2812C154.851 49.4866 155.036 48.6805 155.463 48.04L173.666 20.7954C174.102 20.1831 174.732 19.787 175.421 19.6907C176.111 19.5945 176.806 19.8058 177.361 20.2798C177.915 20.7538 178.285 21.4534 178.392 22.2305C178.498 23.0076 178.334 23.8011 177.932 24.4431L159.743 51.6878C159.494 52.0638 159.171 52.3689 158.799 52.5791C158.428 52.7893 158.018 52.8987 157.603 52.8987Z" fill="#DFEAEF"/>
<path d="M116.609 43.8171C115.9 43.8171 115.22 43.4982 114.718 42.9305C114.216 42.3628 113.934 41.5928 113.934 40.7899V3.17718C113.934 2.37432 114.216 1.60434 114.718 1.03663C115.22 0.468926 115.9 0.149994 116.609 0.149994C117.319 0.149994 117.999 0.468926 118.501 1.03663C119.003 1.60434 119.284 2.37432 119.284 3.17718V40.7899C119.284 41.5928 119.003 42.3628 118.501 42.9305C117.999 43.4982 117.319 43.8171 116.609 43.8171Z" fill="#DFEAEF"/>
<path d="M243.87 197.023H166.845C163.971 197.023 161.642 199.659 161.642 202.911V242.733C161.642 245.985 163.971 248.621 166.845 248.621H243.87C246.743 248.621 249.072 245.985 249.072 242.733V202.911C249.072 199.659 246.743 197.023 243.87 197.023Z" fill="#FFBC0E"/>
<path d="M243.87 250.15H166.845C165.111 250.146 163.45 249.365 162.224 247.978C160.998 246.591 160.308 244.71 160.305 242.749V202.911C160.308 200.949 160.998 199.069 162.224 197.682C163.45 196.294 165.111 195.513 166.845 195.509H243.87C245.603 195.513 247.265 196.294 248.49 197.682C249.716 199.069 250.406 200.949 250.41 202.911V242.749C250.406 244.71 249.716 246.591 248.49 247.978C247.265 249.365 245.603 250.146 243.87 250.15ZM166.845 198.537C165.82 198.537 164.837 198.997 164.112 199.818C163.387 200.638 162.98 201.751 162.98 202.911V242.749C162.98 243.909 163.387 245.021 164.112 245.842C164.837 246.662 165.82 247.123 166.845 247.123H243.87C244.894 247.119 245.875 246.657 246.599 245.837C247.323 245.018 247.731 243.907 247.735 242.749V202.911C247.731 201.752 247.323 200.642 246.599 199.822C245.875 199.003 244.894 198.54 243.87 198.537H166.845Z" fill="#456278"/>
<path d="M174.816 212.583H185.061V216.064H178.133V219.242H184.673V222.709H178.133V226.19H185.436V229.656H174.816V212.583Z" fill="#456278"/>
<path d="M187.696 217.88H190.772V219.469C190.88 219.221 191.025 218.996 191.2 218.804C191.389 218.564 191.61 218.359 191.856 218.198C192.129 218.013 192.421 217.866 192.725 217.759C193.073 217.648 193.433 217.592 193.795 217.593C194.463 217.579 195.125 217.75 195.721 218.092C196.293 218.448 196.741 219.014 196.991 219.697C197.288 219.02 197.753 218.457 198.329 218.077C198.908 217.774 199.535 217.609 200.173 217.594C200.81 217.578 201.444 217.712 202.034 217.986C202.482 218.239 202.868 218.613 203.157 219.076C203.449 219.566 203.653 220.116 203.759 220.695C203.881 221.347 203.939 222.012 203.933 222.678V229.595H200.736V222.769C200.746 222.277 200.64 221.791 200.429 221.361C200.312 221.158 200.147 220.996 199.954 220.892C199.76 220.787 199.545 220.746 199.332 220.771C199.014 220.76 198.698 220.833 198.409 220.983C198.168 221.105 197.96 221.299 197.807 221.543C197.655 221.801 197.546 222.088 197.486 222.391C197.42 222.723 197.389 223.064 197.393 223.405V229.595H194.196V223.405C194.196 223.193 194.196 222.936 194.196 222.633C194.183 222.333 194.128 222.037 194.036 221.755C193.958 221.483 193.814 221.242 193.621 221.059C193.377 220.858 193.08 220.757 192.778 220.771C192.434 220.757 192.093 220.846 191.789 221.028C191.54 221.182 191.336 221.413 191.2 221.694C191.061 221.992 190.971 222.315 190.933 222.648C190.912 223.021 190.912 223.395 190.933 223.768V229.595H187.736L187.696 217.88Z" fill="#456278"/>
<path d="M206.528 217.88H209.47V219.394C209.617 219.16 209.787 218.947 209.978 218.758C210.191 218.521 210.435 218.322 210.7 218.168C210.985 217.988 211.286 217.841 211.597 217.729C211.94 217.619 212.296 217.562 212.653 217.562C213.367 217.555 214.076 217.704 214.74 218.001C215.342 218.297 215.888 218.724 216.345 219.258C216.797 219.815 217.147 220.468 217.374 221.18C217.622 221.961 217.744 222.787 217.736 223.617C217.738 224.413 217.63 225.205 217.415 225.963C217.204 226.682 216.882 227.353 216.465 227.946C216.069 228.524 215.567 228.999 214.994 229.338C214.381 229.691 213.701 229.868 213.014 229.853C212.377 229.864 211.743 229.746 211.142 229.505C210.571 229.282 210.076 228.864 209.724 228.309V235.059H206.528V217.88ZM209.47 223.738C209.437 224.525 209.677 225.297 210.139 225.887C210.385 226.166 210.68 226.383 211.005 226.523C211.33 226.664 211.677 226.726 212.025 226.704C212.372 226.729 212.721 226.669 213.046 226.528C213.371 226.387 213.666 226.168 213.91 225.887C214.342 225.277 214.578 224.519 214.578 223.738C214.578 222.956 214.342 222.198 213.91 221.588C213.666 221.307 213.371 221.089 213.046 220.948C212.721 220.807 212.372 220.747 212.025 220.771C211.677 220.75 211.33 220.811 211.005 220.952C210.68 221.093 210.385 221.31 210.139 221.588C209.903 221.888 209.723 222.238 209.608 222.617C209.494 222.997 209.447 223.398 209.47 223.798V223.738Z" fill="#456278"/>
<path d="M226.71 220.907H223.888V224.812C223.866 225.105 223.866 225.398 223.888 225.69C223.903 225.935 223.967 226.173 224.075 226.387C224.184 226.581 224.343 226.734 224.53 226.826C224.788 226.946 225.066 227.002 225.346 226.992C225.52 226.992 225.747 226.992 226.028 226.992C226.258 226.968 226.476 226.868 226.656 226.704V229.732C226.298 229.879 225.925 229.976 225.546 230.019C225.169 230.074 224.79 230.099 224.41 230.095C223.909 230.102 223.41 230.036 222.925 229.898C222.497 229.787 222.092 229.581 221.735 229.293C221.388 229.009 221.111 228.628 220.932 228.188C220.726 227.675 220.626 227.116 220.638 226.553V220.907H218.592V217.88H220.638V214.414H223.834V217.88H226.656L226.71 220.907Z" fill="#456278"/>
<path d="M234.293 231.503C234.079 232.123 233.865 232.683 233.665 233.167C233.493 233.626 233.238 234.039 232.916 234.378C232.585 234.729 232.187 234.988 231.752 235.135C231.151 235.318 230.529 235.399 229.907 235.377C229.093 235.383 228.285 235.24 227.512 234.954L227.94 231.926C228.407 232.165 228.913 232.289 229.425 232.29C229.724 232.3 230.022 232.254 230.308 232.153C230.521 232.077 230.714 231.942 230.869 231.76C231.023 231.583 231.149 231.378 231.244 231.154L231.565 230.307L231.792 229.626L227.232 217.88H230.682L233.357 225.615L235.644 217.88H238.921L234.293 231.503Z" fill="#456278"/>
</svg>
